<svg width="1024" height="1024" viewBox="0 0 1024 1024" fill="none" xmlns="http://www.w3.org/2000/svg">
  <defs>
    <linearGradient id="tile" x1="0" y1="0" x2="1024" y2="1024" gradientUnits="userSpaceOnUse">
      <stop offset="0" stop-color="#6366f1"></stop>
      <stop offset="0.55" stop-color="#7c3aed"></stop>
      <stop offset="1" stop-color="#a855f7"></stop>
    </linearGradient>
    <radialGradient id="sheen" cx="0.3" cy="0.16" r="0.9">
      <stop offset="0" stop-color="#ffffff" stop-opacity="0.25"></stop>
      <stop offset="0.5" stop-color="#ffffff" stop-opacity="0"></stop>
    </radialGradient>
    <linearGradient id="panel" x1="0" y1="0" x2="0" y2="1">
      <stop offset="0" stop-color="#ffffff"></stop>
      <stop offset="1" stop-color="#eef0fb"></stop>
    </linearGradient>
    <linearGradient id="badge" x1="0" y1="0" x2="1" y2="1">
      <stop offset="0" stop-color="#4f46e5"></stop>
      <stop offset="1" stop-color="#7c3aed"></stop>
    </linearGradient>
  </defs>

  
  <rect x="0" y="0" width="1024" height="1024" rx="232" fill="url(#tile)"></rect>
  <rect x="0" y="0" width="1024" height="1024" rx="232" fill="url(#sheen)"></rect>

  
  <g>
    <rect x="277" y="206" width="470" height="150" rx="28" fill="url(#panel)"></rect>
    <rect x="277" y="380" width="470" height="250" rx="28" fill="url(#panel)"></rect>
    <rect x="277" y="654" width="470" height="150" rx="28" fill="url(#panel)"></rect>
  </g>

  
  <g opacity="0.5">
    <circle cx="372" cy="470" r="40" fill="#c7cdf2"></circle>
    <path d="M317 600 Q452 500 707 600 L707 606 L317 606 Z" fill="#c7cdf2"></path>
  </g>

  
  <g>
    <rect x="241" y="362" width="542" height="12" rx="6" fill="#f59e0b"></rect>
    <rect x="227" y="350" width="32" height="32" rx="5" fill="#f59e0b"></rect>
    <rect x="765" y="350" width="32" height="32" rx="5" fill="#f59e0b"></rect>
  </g>

  
  <circle cx="712" cy="730" r="104" fill="#ffffff"></circle>
  <circle cx="712" cy="730" r="90" fill="url(#badge)"></circle>
  <path d="M688 686 L688 774 L760 730 Z" fill="#ffffff"></path>
</svg>