<svg width="760" height="200" viewBox="0 0 760 200" fill="none" xmlns="http://www.w3.org/2000/svg">
  <defs>
    <linearGradient id="dtile" x1="20" y1="20" x2="180" y2="180" gradientUnits="userSpaceOnUse">
      <stop offset="0" stop-color="#6366f1"></stop>
      <stop offset="0.55" stop-color="#7c3aed"></stop>
      <stop offset="1" stop-color="#a855f7"></stop>
    </linearGradient>
    <linearGradient id="dpanel" x1="0" y1="0" x2="0" y2="1">
      <stop offset="0" stop-color="#ffffff"></stop>
      <stop offset="1" stop-color="#eef0fb"></stop>
    </linearGradient>
    <linearGradient id="dbadge" x1="0" y1="0" x2="1" y2="1">
      <stop offset="0" stop-color="#4f46e5"></stop>
      <stop offset="1" stop-color="#7c3aed"></stop>
    </linearGradient>
  </defs>

  <g transform="translate(20,20) scale(0.15625)">
    <rect x="0" y="0" width="1024" height="1024" rx="232" fill="url(#dtile)"></rect>
    <rect x="277" y="206" width="470" height="150" rx="28" fill="url(#dpanel)"></rect>
    <rect x="277" y="380" width="470" height="250" rx="28" fill="url(#dpanel)"></rect>
    <rect x="277" y="654" width="470" height="150" rx="28" fill="url(#dpanel)"></rect>
    <rect x="241" y="362" width="542" height="12" rx="6" fill="#f59e0b"></rect>
    <rect x="227" y="350" width="32" height="32" rx="5" fill="#f59e0b"></rect>
    <rect x="765" y="350" width="32" height="32" rx="5" fill="#f59e0b"></rect>
    <circle cx="712" cy="730" r="104" fill="#ffffff"></circle>
    <circle cx="712" cy="730" r="90" fill="url(#dbadge)"></circle>
    <path d="M688 686 L688 774 L760 730 Z" fill="#ffffff"></path>
  </g>

  <text x="208" y="92" font-family="Geist, ui-sans-serif, system-ui, sans-serif" font-size="58" font-weight="700" letter-spacing="-1.5" fill="#f0f0f0">Manhwa<tspan fill="#a855f7"> Studio</tspan></text>
  <text x="210" y="138" font-family="Geist, ui-sans-serif, system-ui, sans-serif" font-size="22" font-weight="500" letter-spacing="5" fill="#8a8a8a">PANEL · VIDEO EDITOR</text>
</svg>